<?xml version="1.0" encoding="utf-8"?>
<!-- Generator: Adobe Illustrator 18.0.0, SVG Export Plug-In . SVG Version: 6.00 Build 0)  -->
<!DOCTYPE svg PUBLIC "-//W3C//DTD SVG 1.1//EN" "http://www.w3.org/Graphics/SVG/1.1/DTD/svg11.dtd">
<svg version="1.1" id="Calque_1" xmlns="http://www.w3.org/2000/svg" xmlns:xlink="http://www.w3.org/1999/xlink" x="0px" y="0px"
	 viewBox="0 0 32 32" style="enable-background:new 0 0 32 32;" xml:space="preserve">
<g sketch:type="MSPage">
	<path sketch:type="MSShapeGroup" d="M27,27l-6.4,0l0-1.1l4.5,0L16,16.8l-9.1,9.1l4.5,0l0,1.1L5,27l0-6.4l1.1,0l0,4.5l9.1-9.1
		L6.1,6.9l0,4.5l-1.1,0L5,5l6.4,0l0,1.1l-4.5,0l9.1,9.1l9.1-9.1l-4.5,0l0-1.1L27,5l0,6.4l-1.1,0l0-4.5L16.8,16l9.1,9.1l0-4.5l1.1,0
		L27,27L27,27z"/>
</g>
</svg>
